<svg xmlns="http://www.w3.org/2000/svg" viewBox="0 0 200.256 34.557">
  <defs>
    <style>
      .cls-1 {
        fill: #000;
      }
    </style>
  </defs>
  <g id="logo_1_" transform="translate(25.4 0.038)">
    <path id="Path_1_1_" class="cls-1" d="M4.035,3.244A4.624,4.624,0,0,1,3.163,5.71,4.675,4.675,0,0,1,1.655,7.519c-.555.247-.873.247-.873-.164a3.735,3.735,0,0,1,.555-.575A3.9,3.9,0,0,0,2.845,4.313c0-1.4-1.349-2.055-3.967-2.055a20.023,20.023,0,0,0-4.443.658,18.559,18.559,0,0,0-5.316,2.137C-12.864,6.2-13.9,7.19-13.9,8.012c0,.658.635,1.315,1.825,1.891.635.329,1.984.822,3.888,1.644,1.9.74,3.491,1.48,4.76,2.055A12.289,12.289,0,0,1-.011,15.986a4.694,4.694,0,0,1,1.587,3.453,6.287,6.287,0,0,1-2.142,4.11,25.019,25.019,0,0,1-8.489,5.343,24.325,24.325,0,0,1-8.965,2.137c-4.919,0-7.379-1.4-7.379-4.275s1.507-5.261,4.522-7.316A13.352,13.352,0,0,1-13.1,16.726c.635,0,.952.082.873.329s-.476.329-1.349.329a9.15,9.15,0,0,0-3.332.9A14.008,14.008,0,0,0-20.8,20.836a5.928,5.928,0,0,0-2.3,4.357,2.98,2.98,0,0,0,1.269,2.384c.873.74,2.46,1.069,4.84,1.069a22.225,22.225,0,0,0,6.982-1.151c4.919-1.644,8.013-3.535,9.2-5.508A3.253,3.253,0,0,0-.09,20.1a3.843,3.843,0,0,0-2.618-3.453A82.465,82.465,0,0,0-11.2,13.355a12.517,12.517,0,0,1-3.57-1.891A3.623,3.623,0,0,1-16.2,8.587,4.51,4.51,0,0,1-14.451,5.3a13.206,13.206,0,0,1,4.205-2.548A24.222,24.222,0,0,1-1.28.7C2.29.531,4.035,1.436,4.035,3.244Z" transform="translate(0 -0.127)"/>
    <path id="Path_2_1_" class="cls-1" d="M17.348,16.641c2.38-.247,3.808-.329,4.364-.329s.793.082.793.247-.4.411-1.111.575a39.618,39.618,0,0,1-5.316.822l-.555.986a5.372,5.372,0,0,0-.714,1.315,31.149,31.149,0,0,0-2.777,6.987V28.4a1.572,1.572,0,0,0,.4,1.151c.4.493,1.031.575,1.825.082a17.846,17.846,0,0,0,3.412-2.713,27.805,27.805,0,0,0,3.491-4.028c.079-.164.317-.164.476-.082.476.247-.317,1.48-2.46,3.781a15.277,15.277,0,0,1-5,4.11,4.18,4.18,0,0,1-1.984.493,2.4,2.4,0,0,1-2.46-1.808,2.893,2.893,0,0,1-.079-.822,14,14,0,0,1,1.507-5.1,13.339,13.339,0,0,1-1.825,2.384c-.238.329-.476.329-.635,0V25.6a.64.64,0,0,1,.159-.411c1.507-1.973,2.7-3.617,3.57-5.014,1.269-2.055.317-.74,1.031-2.055a3.732,3.732,0,0,1-.952.082.849.849,0,0,1-.714-.329.634.634,0,0,1,0-.74c.238-.493,1.031-.822,2.46-.9,0-.082.079-.082.159-.082l2.3-4.521a7.751,7.751,0,0,0,.4-.822l.317-.658.238-.493c.079-.082.159-.247.238-.329l.159-.164A10.161,10.161,0,0,1,19.332,9a1.157,1.157,0,0,1,1.269.575,1.593,1.593,0,0,1,.159.658,2.063,2.063,0,0,1-.317.986,2.306,2.306,0,0,1-.714.822,1.889,1.889,0,0,0-.555.575l-2.222,4.028Z" transform="translate(-7.045 -1.604)"/>
    <path id="Path_3_1_" class="cls-1" d="M34.122,17.7a2.223,2.223,0,0,1,2.539,2.466,3.455,3.455,0,0,1-.714,2.137,10.036,10.036,0,0,1-3.729,3.124,13.559,13.559,0,0,1-4.443,1.48c-.476,0-.635-.082-.714-.411s0-.247.079-.247h.238a7.236,7.236,0,0,0,2.777-1.069,16.21,16.21,0,0,0,4.6-3.535A3.239,3.239,0,0,0,35.391,20a.735.735,0,0,0-.555-.822h-.159a4.482,4.482,0,0,0-1.666.575,16.845,16.845,0,0,0-4.681,3.617,13.037,13.037,0,0,0-3.174,5.1,4.808,4.808,0,0,0-.238,1.48,1.781,1.781,0,0,0,.635,1.4A2.218,2.218,0,0,0,27.378,32a10,10,0,0,0,3.174-.74,17.3,17.3,0,0,0,8.093-6.741c.159-.247.4-.329.555-.164s.159.164.159.247a.432.432,0,0,1-.159.329,16.561,16.561,0,0,1-3.57,4.275,12.461,12.461,0,0,1-8.093,3.7,5.2,5.2,0,0,1-4.681-2.055A4.334,4.334,0,0,1,22.3,28.88a6.183,6.183,0,0,1,.635-2.713,14.727,14.727,0,0,1,5.078-5.59C30.631,18.686,32.614,17.7,34.122,17.7Z" transform="translate(-9.854 -3.157)"/>
    <path id="Path_4_1_" class="cls-1" d="M44.918,20.363c0-1.562-.4-2.3-1.269-2.3a1.307,1.307,0,0,0-.555.082c-.238,0-.317,0-.317-.082,0-.164.159-.329.317-.493a5.291,5.291,0,0,1,1.9-.411c1.269,0,2.142.164,2.46.575a1.652,1.652,0,0,1,.476,1.151,12.022,12.022,0,0,1-.873,2.877c-.555,1.562-.873,2.3-.873,2.384a18.6,18.6,0,0,0-1.269,5.425c2.777-3.864,4.6-6.33,5.475-7.316,1.825-2.055,3.094-3.535,3.888-4.275a18.647,18.647,0,0,1,4.76-3.535,2.46,2.46,0,0,1,1.111-.247,2.148,2.148,0,0,1,2.063.986.9.9,0,0,1,.159.493,1.2,1.2,0,0,1-.159.493c-.079.164-.238.164-.555,0a3.038,3.038,0,0,0-1.666-.329q-2.142,0-7.141,5.179A63.367,63.367,0,0,0,47.3,27.761a13.277,13.277,0,0,0-2.7,5.014c0,.247-.238.411-.714.411a1.228,1.228,0,0,1-1.031-.575,1.618,1.618,0,0,1-.317-.986v-.74a25.615,25.615,0,0,1,.952-3.535c.635-2.137.952-3.617,1.111-4.275-.4.658-.873,1.4-1.507,2.384-.238.247-.4.329-.555.247a.44.44,0,0,1-.238-.329.508.508,0,0,1,.079-.329,29.808,29.808,0,0,0,2.539-4.686Z" transform="translate(-13.986 -2.531)"/>
    <path id="Path_5_1_" class="cls-1" d="M68.1,17.7a2.223,2.223,0,0,1,2.539,2.466,3.456,3.456,0,0,1-.714,2.137,8.923,8.923,0,0,1-3.808,3.124,13.559,13.559,0,0,1-4.443,1.48c-.476,0-.635-.082-.714-.411s0-.247.079-.247h.238a7.236,7.236,0,0,0,2.777-1.069,16.21,16.21,0,0,0,4.6-3.535A3.239,3.239,0,0,0,69.291,20a.735.735,0,0,0-.555-.822h-.159a4.482,4.482,0,0,0-1.666.575,14.483,14.483,0,0,0-4.6,3.7,13.037,13.037,0,0,0-3.174,5.1,4.807,4.807,0,0,0-.238,1.48,1.781,1.781,0,0,0,.635,1.4,2.218,2.218,0,0,0,1.825.658,10,10,0,0,0,3.174-.74,16.835,16.835,0,0,0,8.093-6.741c.159-.247.4-.329.476-.164s.159.164.159.247a.432.432,0,0,1-.159.329,16.56,16.56,0,0,1-3.57,4.275,12.461,12.461,0,0,1-8.093,3.7,5.2,5.2,0,0,1-4.681-2.055,3.54,3.54,0,0,1-.555-1.973,6.183,6.183,0,0,1,.635-2.713,14.766,14.766,0,0,1,5-5.672C64.61,18.686,66.594,17.7,68.1,17.7Z" transform="translate(-16.858 -3.157)"/>
    <path id="Path_6_1_" class="cls-1" d="M89.233,18.1a1.022,1.022,0,0,1,1.111,1.151,7.046,7.046,0,0,1-1.111,3.288c-.555,1.069-1.111,2.22-1.587,3.37a10.991,10.991,0,0,0-.873,3.535,2.658,2.658,0,0,0,.4,1.726,1.389,1.389,0,0,0,1.9.082,20.69,20.69,0,0,0,3.412-2.713,23.426,23.426,0,0,0,3.491-3.946c.079-.164.317-.164.476-.082s.238.164.238.247a.309.309,0,0,1-.079.247,17.026,17.026,0,0,1-2.539,3.288,22.434,22.434,0,0,1-3.491,3.288,5.924,5.924,0,0,1-3.332,1.233,3.177,3.177,0,0,1-2.222-.74,2.277,2.277,0,0,1-.714-1.726,17.918,17.918,0,0,1,.159-2.055,11.037,11.037,0,0,1,.714-2.3c.4-1.069.952-2.22,1.428-3.206a5.948,5.948,0,0,0,.635-1.48c0-.247-.159-.329-.4-.329-.476,0-1.428.658-2.856,1.891a67.682,67.682,0,0,0-4.284,5.261,31.78,31.78,0,0,1-3.253,4.11,9.3,9.3,0,0,1-2.063.9c-.317,0-.4,0-.4-.164a.764.764,0,0,1,.079-.411l.873-2.713c.555-1.562,1.111-3.288,1.745-5.179s1.031-3.042,1.19-3.37a2.253,2.253,0,0,0,.238-.986c.079-.247.079-.493.159-.658A4.953,4.953,0,0,1,78.6,19a.806.806,0,0,1,.635-.411,5.059,5.059,0,0,1,1.111.082c.4.082.635.247.635.575a5.357,5.357,0,0,1-.476,1.48c-.317.74-1.349,3.37-2.936,7.809q1.666-2.1,4.284-4.932a43.11,43.11,0,0,1,4.364-4.192A5,5,0,0,1,89.233,18.1Z" transform="translate(-20.535 -3.228)"/>
    <path id="Path_7_1_" class="cls-1" d="M105.406,27.926a.559.559,0,0,0,.476.658h.159c.4,0,.952-.411,1.666-1.315s1.19-1.315,1.428-1.315,0,.575-.635,1.233a1.726,1.726,0,0,0-.317.493,7.63,7.63,0,0,0-.4.658l-.476.658a4.077,4.077,0,0,1-.555.658,3.488,3.488,0,0,1-.555.493,2.134,2.134,0,0,1-.952.493,4.531,4.531,0,0,1-1.111-.164c-.476-.082-.714-.247-.714-.329v-.329c0-1.644,1.349-5.1,3.967-10.276h-.952a.382.382,0,0,1-.4-.411c0-.247,0-.329.159-.411h1.507q2.38-4.439,2.856-5.425a4.143,4.143,0,0,0,.476-1.4v-.658a7,7,0,0,1,2.3-3.535,5.956,5.956,0,0,1,3.729-2.22,3.193,3.193,0,0,1,1.507.411,1.739,1.739,0,0,1,1.111.986,3.186,3.186,0,0,1,.079.658c0,.082-.159,0-.317,0l-.238-.082q-3.332,0-9.521,11.344A34.49,34.49,0,0,0,120,16.664a19.207,19.207,0,0,0,8.172-4.932,4.976,4.976,0,0,0,1.587-3.37c0-3.535-3.57-5.343-10.632-5.343a37.683,37.683,0,0,0-11.663,1.891,14.24,14.24,0,0,0-4.919,2.877,6.768,6.768,0,0,0-2.38,4.028v.658a1.763,1.763,0,0,0,.317.9,1.779,1.779,0,0,0,.714.822,8.575,8.575,0,0,0,1.19.658,6.486,6.486,0,0,1,1.031.575c.159.164.238.247.079.411s-.317.164-.635.082a4.925,4.925,0,0,1-2.7-1.48A3.516,3.516,0,0,1,98.9,11.732a3.49,3.49,0,0,1,.079-.9,2.354,2.354,0,0,1-.079-.74c.4-2.384,2.7-4.686,6.823-6.905A26.9,26.9,0,0,1,117.307.8,29.648,29.648,0,0,1,125.4,1.95a9.4,9.4,0,0,1,4.126,2.713,6.031,6.031,0,0,1,1.428,3.617,6.71,6.71,0,0,1-2.142,4.932,14.215,14.215,0,0,1-4.84,3.288,38.29,38.29,0,0,1-14.837,2.959c-1.19,2.3-2.142,4.192-2.777,5.59a9.42,9.42,0,0,0-.952,2.877Z" transform="translate(-25.68 -0.148)"/>
    <path id="Path_8_1_" class="cls-1" d="M149.892,28.322a23.61,23.61,0,0,1-3.253,3.124,6.639,6.639,0,0,1-4.046,1.315,1.855,1.855,0,0,1-1.111-.411,1.582,1.582,0,0,1-.873-1.151,4.808,4.808,0,0,1-.238-1.48,13.711,13.711,0,0,1,.952-5.014,17.588,17.588,0,0,0-1.269,2.055,24.726,24.726,0,0,1-2.777,3.7,4.948,4.948,0,0,1-3.332,1.726,4.568,4.568,0,0,1-1.825-.411,3.058,3.058,0,0,1-1.825-3.124,10.837,10.837,0,0,1,1.9-5.837,11.871,11.871,0,0,1,2.38-3.206,6.715,6.715,0,0,1,1.269-.164,3.189,3.189,0,0,1,1.269.247c.4.164.4.493-.159.9a18,18,0,0,0-4.6,6.741A7.98,7.98,0,0,0,131.8,29.8a1.6,1.6,0,0,0,.476,1.315,4.366,4.366,0,0,0,.952.329,4.84,4.84,0,0,0,3.015-1.644,33.266,33.266,0,0,0,5.316-6.741c.317-.493.873-1.4,1.666-2.795s1.269-2.22,1.428-2.466a6,6,0,0,1,1.745.329c.635.247.873.575.635.9-1.507,2.548-2.539,4.439-3.174,5.672a13.267,13.267,0,0,0-1.269,4.275v1.151a1.572,1.572,0,0,0,.4,1.151,1.389,1.389,0,0,0,1.9.082,17.846,17.846,0,0,0,3.412-2.713,27.143,27.143,0,0,0,3.491-3.946c.079-.164.317-.164.476-.082s.238.164.238.247a.309.309,0,0,1-.079.247A31.807,31.807,0,0,1,149.892,28.322Z" transform="translate(-32.161 -3.174)"/>
    <path id="Path_9_1_" class="cls-1" d="M158.836,22.353c-.238.74-.476,1.48-.635,2.22v1.48a3.322,3.322,0,0,0,.476,1.726c.555.9,1.428.986,2.618.164a23.522,23.522,0,0,0,3.57-2.795,28.206,28.206,0,0,0,3.253-3.7c.079-.082.159-.164.238-.164.317,0,.4.247.238.658a14.729,14.729,0,0,1-2.618,3.288,32.021,32.021,0,0,1-3.412,3.206,4.825,4.825,0,0,1-3.094,1.151c-2.38,0-3.57-1.151-3.57-3.535v-.329c.159-2.22,1.19-5.672,3.332-10.193a60.835,60.835,0,0,1,5.633-10.276l1.428-1.891A13.78,13.78,0,0,1,167.8,1.8a5.158,5.158,0,0,1,3.888-1.808,2.792,2.792,0,0,1,2.7,1.233,3.4,3.4,0,0,1,.238,1.233,5.566,5.566,0,0,1-.714,2.3C170.816,10.6,165.738,16.434,158.836,22.353ZM172.72,4.021a4.034,4.034,0,0,0,.555-1.644c0-.658-.238-.986-.793-.986a3.1,3.1,0,0,0-1.666.74,29.64,29.64,0,0,0-7.22,9.454,70.069,70.069,0,0,0-4.126,8.96,39.163,39.163,0,0,0,7.22-7.4A48.641,48.641,0,0,0,172.72,4.021Z" transform="translate(-37.455 0)"/>
    <path id="Path_10_1_" class="cls-1" d="M174.713,17.059q1.19,0,1.428.74a1.469,1.469,0,0,1-.079.822c-.079.247-.238.411-.317.658l-.159.411a9.068,9.068,0,0,1-.476.9,31.151,31.151,0,0,0-2.777,6.987v1.151a1.572,1.572,0,0,0,.4,1.151c.4.493,1.031.575,1.825.082a17.846,17.846,0,0,0,3.412-2.713,27.8,27.8,0,0,0,3.491-4.028c.079-.164.238-.164.4-.082s.238.164.238.247a.309.309,0,0,1-.079.247,17.026,17.026,0,0,1-2.539,3.288,15.277,15.277,0,0,1-5,4.11,5.358,5.358,0,0,1-1.984.411,2.4,2.4,0,0,1-2.46-1.808,2.893,2.893,0,0,1-.079-.822,14,14,0,0,1,1.507-5.1,13.338,13.338,0,0,1-1.825,2.384c-.317.329-.476.329-.635,0v-.247a.64.64,0,0,1,.159-.411c1.507-1.973,2.7-3.617,3.57-5.014a.957.957,0,0,1,.079-.658c.635-1.808,1.19-2.713,1.666-2.877Zm3.65-6.412-.4,1.562a2.54,2.54,0,0,1-.635,1.315q-.6.986-.952.986c-1.349,0-1.984-.329-1.984-.986a10.558,10.558,0,0,1,1.984-1.808l.793-.658c.476-.411.793-.658.952-.658a.285.285,0,0,1,.238.082c.079.082.079.082,0,.164Z" transform="translate(-40.162 -1.858)"/>
    <path id="Path_11_1_" class="cls-1" d="M185.532,19.8a33.325,33.325,0,0,1,4.284-3.288,14.427,14.427,0,0,1,3.57-1.726,9.531,9.531,0,0,1,2.618-.329,3.747,3.747,0,0,1,2.38.9C202.591,5.09,206.637-.007,210.525-.007a2.7,2.7,0,0,1,2.618,1.151,2.4,2.4,0,0,1,.317.986,6.049,6.049,0,0,1-1.031,3.042A21.472,21.472,0,0,1,209.335,9.2a64.948,64.948,0,0,1-6.03,5.508c-2.618,2.137-4.046,3.37-4.364,3.617a41.306,41.306,0,0,0-2.3,6.905,26.49,26.49,0,0,0-.873,5.014,5.081,5.081,0,0,0,.555,2.631,1.154,1.154,0,0,0,.873.74,1.325,1.325,0,0,0,.952-.164c.238-.164.4-.329.635-.493a1.269,1.269,0,0,1,.555-.329c.238-.082.317-.164.476-.082s.079.247,0,.575c-.238.247-.476.575-.714.822a3.177,3.177,0,0,1-1.745.575h-1.269c-1.507-.247-2.222-1.4-2.222-3.37a20.157,20.157,0,0,1,.714-5.343c.714-2.22,1.269-4.11,1.825-5.59-5,6-8.489,8.96-10.552,8.96a2.79,2.79,0,0,1-1.587-.493,4.5,4.5,0,0,1-1.428-1.315,2.936,2.936,0,0,1-.635-1.808,4.615,4.615,0,0,1,.4-1.808,11.033,11.033,0,0,1,2.936-3.946Zm12.377-3.7a5.305,5.305,0,0,0-1.984-.329,8.3,8.3,0,0,0-3.65,1.151,19.088,19.088,0,0,0-4.205,3.042,17.693,17.693,0,0,0-2.856,3.617,6.564,6.564,0,0,0-1.269,2.959c0,1.151.317,1.808.952,1.808a6.464,6.464,0,0,0,3.015-1.644,95.614,95.614,0,0,0,9.283-8.878ZM211.556,4.021a5.218,5.218,0,0,0,.635-1.973c0-.493-.238-.822-.635-.822a3.5,3.5,0,0,0-1.825.9q-5.117,4.069-9.283,13.564a40.369,40.369,0,0,0,6.347-5.343,26.166,26.166,0,0,0,4.76-6.33Z" transform="translate(-42.889 0)"/>
    <path id="Path_12_1_" class="cls-1" d="M214.332,26.414A8.332,8.332,0,0,0,215.2,23.7a4.808,4.808,0,0,0-.238-1.48.746.746,0,0,1,.159-.9,1.147,1.147,0,0,1,1.031-.329c.635.164.952.9.952,2.137a10.131,10.131,0,0,1-2.222,5.1,1.19,1.19,0,0,0,.952,1.315h.317c.873,0,2.142-.9,3.888-2.795a20.8,20.8,0,0,0,1.507-1.891c.238-.329.4-.411.555-.329s.238.164.238.247a6.685,6.685,0,0,1-1.666,2.466c-1.745,2.22-3.332,3.37-4.681,3.37a1.875,1.875,0,0,1-1.9-1.233c-.635.658-1.19,1.315-1.825,1.891a6.1,6.1,0,0,1-4.046,1.562,3.113,3.113,0,0,1-2.063-.658,3.881,3.881,0,0,1-1.666-3.617,11.176,11.176,0,0,1,1.825-5.754,13.1,13.1,0,0,1,2.539-3.042,6.467,6.467,0,0,1,4.364-2.055,3.856,3.856,0,0,1,.952.164,1.911,1.911,0,0,1,1.428,1.808c0,.74-.159,1.151-.555,1.151-.159,0-.238-.329-.238-.74a.9.9,0,0,0-.873-.9h-.079c-1.031,0-2.46,1.069-4.205,3.042a12.826,12.826,0,0,0-3.094,6.248,6.029,6.029,0,0,0-.079,1.151,3.161,3.161,0,0,0,.4,1.48,1.6,1.6,0,0,0,1.587.822,3.786,3.786,0,0,0,2.46-1.069,11.324,11.324,0,0,0,2.46-2.713l-.159-.329a1.351,1.351,0,0,1,.159-1.233,1.26,1.26,0,0,1,.952-.164Z" transform="translate(-47.49 -3.157)"/>
  </g>
</svg>
